<?xml version="1.0" encoding="UTF-8"?>
<svg id="Calque_1" data-name="Calque 1" xmlns="http://www.w3.org/2000/svg" viewBox="0 0 500 500">
  <defs>
    <style>
      .cls-1 {
        fill: #240e00;
        stroke-width: 0px;
      }
    </style>
  </defs>
  <g id="Arômes">
    <path class="cls-1" d="M135.72,408.41c14.62.42,29.14,2.88,43.49,6.25,2.59.61,3.31-.9,4.5-2.29,16.06-18.8,37.07-28.09,61.91-29.89,12.12-.88,23.36,2.37,34.03,7.55,21.91,10.64,40.42,25.42,55.8,43.81,8.21,9.82,7.74,15.87-1.44,24.95-8.96,8.86-20.15,14.27-31.94,18.65-19,7.07-38.74,10.51-59.06,10.8-32.97.47-58.78-20.1-64.87-51.55-.41-2.11-.2-4.2-3.35-4.93-21.03-4.84-42.15-7.99-63.81-4.47-2.58.42-4.64,1.41-6.6,2.9-26.87,20.59-55.81,38.22-84.96,55.54-6.21,3.69-11.35,3.16-14.49-1.54-3.13-4.68-1.56-9.58,4.6-13.32,12.7-7.73,25.16-15.91,38.32-22.83,16.56-8.71,24.05-22.66,27.64-39.55,2.16-10.17,2.3-20.41,2.27-30.73-.01-3.8-1.35-4.94-5.14-5.32-11.06-1.1-21.55-4.3-31.4-9.31-22.75-11.58-32.49-30.22-27.14-54.44,6.75-30.51,18.13-59.42,34.84-86.25,1.47-2.36,3.1-4.63,4.83-6.82,9.12-11.5,15.44-12.73,28.03-4.54,18.95,12.33,31.8,29.83,42.63,48.82,7.37,12.92,12.54,26.59,15.23,41.26,5.57,30.37-16.64,59.34-39.35,68.89-3.69,1.55-4.61,3.24-4.42,6.84.67,13.06-.14,26.05-3.68,40.16,9.18-6.82,17.39-12.85,25.52-18.97,25.07-18.87,49.37-38.63,73.41-58.71,4.81-4.02,7.92-8.65,9.8-14.41,6.04-18.52,8.49-37.63,10.32-56.85.54-5.67,2.52-11.91.79-16.9-1.91-5.52-9.97-3.91-14.97-6.5-17.42-9.01-24.88-23.91-28.05-41.74-2.44-13.78-.72-27.06,4.49-40.01,8.62-21.45,20.04-41.23,37.61-57.13,8.22-7.44,11.99-7.79,21.1-1.63,41.36,27.95,55.34,69.11,38.51,114.5-6.06,16.36-18.19,26.86-36.24,30.08-2.9.52-3.67,1.61-3.82,4.26-1.08,18.71-3.03,37.34-6.76,56.05.74-.27,1.31-.31,1.63-.61,40.86-37.88,79.4-77.7,110.58-123.65,8.55-12.6,16.18-25.72,22.29-39.61.65-1.49,2.2-2.92-.35-4.65-13.82-9.38-19.44-23.55-23.34-38.55-8.02-30.86,4.25-54.15,29.42-72.44,9.78-7.1,20.4-12.76,32.16-16.24,9.84-2.92,12.24-2.23,18.34,5.93,9.42,12.59,14.62,26.79,17.25,42.07,6.77,39.36-22.43,70.65-48.85,79.92-2.03.71-3.72,1.46-4.6,3.62-10.29,25.29-25.09,48.11-42.01,70.71,11.5-2.76,22.2-5.33,32.9-7.9.55-.13,1.08-.41,1.64-.47,9.9-1,16.69-3.29,19.58-15.22,3.56-14.71,17.53-21.8,31.74-26.85,15.58-5.53,31.1-3.3,46.58.38,7.56,1.8,14.98,4.02,21.93,7.58,5.09,2.61,6.94,6.13,5.4,11.74-4.44,16.13-14.87,28.32-27.18,39.27-5.32,4.74-11.23,8.75-17.71,11.97-16.83,8.36-33.07,5.99-48.91-2.54-2.28-1.23-4.95-2.82-6.02-4.92-3.93-7.67-9.81-6.79-16.89-5.17-19.79,4.52-39.56,8.95-58.26,16.92-4.74,2.02-8.82,4.7-12.24,8.65-23.97,27.67-49.92,53.53-77.26,78.1-.22.2-.26.57-.56,1.26,6.83-.06,13.11-2.12,19.55-3.15,11.62-1.86,23.23-3.82,34.87-5.56,2.09-.31,3.28-1.03,4.39-2.79,17.74-28.15,44.23-41.03,77.79-40.02,17.59.53,34.54,4.98,50.34,12.8,16.09,7.97,18.19,14,10.68,29.99-13.58,28.92-48.95,47.78-83.97,44.76-12.51-1.08-24.99-2.32-36.69-7.2-8.64-3.6-15.98-8.59-19.36-17.55-.87-2.3-2.18-2.34-4.36-2-26.83,4.15-53.58,8.68-79.74,15.96-2.21.62-4.3,1.27-6.09,2.79-20.15,17.12-40.82,33.64-61.79,49.8-.55.42-1.32.76-.97,2.23Z"/>
  </g>
</svg>