<?xml version="1.0" encoding="UTF-8"?>
<svg id="Calque_1" data-name="Calque 1" xmlns="http://www.w3.org/2000/svg" viewBox="0 0 500 500">
  <defs>
    <style>
      .cls-1 {
        fill: #240e00;
        stroke-width: 0px;
      }
    </style>
  </defs>
  <g id="Grain">
    <path class="cls-1" d="M344.95,18.91c-19.18,21.17-34.21,39.34-50.87,55.85-47.78,47.34-68.37,104.61-65.39,171.22,1.15,25.81,2.95,51.71,1.92,77.47-2.55,63.8-34.93,111.36-85.98,146.64-7.2,4.97-22.13,4.55-30.78.65-45.39-20.5-68.23-58.28-75.06-106.4C21.91,245.28,101.06,84.6,205.91,25.43c42.61-24.04,86.71-31.68,139.04-6.53Z"/>
    <path class="cls-1" d="M176.58,491.53c19-18.89,34.55-33.82,49.51-49.32,39.34-40.75,56.45-89.87,44.72-145.06-22.97-108.05,27.32-185.91,100.8-254.56,5.71-5.34,23.88-4.86,31.13.23,36.04,25.28,52.15,63.21,58.19,105.48,17.41,121.73-55.73,266.52-164.03,324.6-36.13,19.38-74.05,31.05-120.31,18.63Z"/>
  </g>
</svg>