<?xml version="1.0" encoding="UTF-8"?>
<svg id="Calque_1_-_copie_3" data-name="Calque 1 - copie 3" xmlns="http://www.w3.org/2000/svg" viewBox="0 0 3000 3000">
  <defs>
    <style>
      .cls-1 {
        stroke-width: 40px;
      }

      .cls-1, .cls-2 {
        fill: none;
        stroke: #240e00;
        stroke-miterlimit: 10;
      }

      .cls-2 {
        stroke-width: 20px;
      }

      .cls-3 {
        font-family: Impact, Impact;
        font-size: 363px;
        letter-spacing: .11em;
      }

      .cls-3, .cls-4 {
        isolation: isolate;
      }

      .cls-3, .cls-5 {
        fill: #240e00;
      }

      .cls-5 {
        stroke-width: 0px;
      }
    </style>
  </defs>
  <circle class="cls-2" cx="1500.55" cy="1499.45" r="1473.21"/>
  <g>
    <path class="cls-5" d="M399.23,1844c107.91-11.5,210.51-12.76,317.25,8.47,91.66,18.23,179.39,51.19,255.07,100.91,151.83,99.73,253.88,264.97,242.75,434.65-5.41,82.56-37.21,164.69-88.11,233.87-22.86,31.08-49.95,59.67-80.37,85.13-10.67,8.93-27.85,27.04-42.18,30.8-18.5,4.85-43.03-10.33-58.71-17.51-162.84-74.6-275.08-231.91-291.45-393.26-5.25-51.78,8.84-100.72,8.58-151.93-.25-49.55-21.07-96.62-49.1-138.79-25.75-38.74-58.52-73.39-94.69-104.79-18.75-16.28-38.22-32.05-59.07-46.19-12.33-8.37-56.48-27.47-59.98-41.36h0ZM585.27,1917.64c1.32,1.37,2.62,2.77,3.98,4.12,47.57,47.15,87.55,98.47,111.43,158.71,17.85,45.03,25.45,91.29,15.94,138.43-13.88,68.87-6.39,135.76,19.32,201.35,23.11,58.97,57.7,112.36,101.88,160.87,36.24,39.79,82.3,68.56,132.61,92.59,8.03,3.83,9.6,2.01,9.61-5.39.02-13.7,1.2-27.39,1.58-41.08,1.66-59.16-.4-118.24-8.35-176.99-9.63-71.23-26.49-141.06-54.76-208.54-23.82-56.85-55.12-110.09-96.03-158.74-47.2-56.12-104.67-102.29-172.46-138.19-20.51-10.86-41.38-21.27-64.75-27.16v.02ZM614.66,1892.17c146.78,66.11,257.54,171.03,322.35,305.4,71.19,147.56,80.28,303.89,80.28,462.07,143.49-134.79,180.5-332.24,80.64-497.41-92.68-153.32-284.47-265.85-483.28-270.06h0Z"/>
    <path class="cls-5" d="M2474.93,1720.34c-8.98,9.41-18.45,18.49-28.45,27.17-34,29.51-73.05,54.7-115.05,74.5-23.35,11.01-47.72,20.3-72.81,27.73-15.24,4.51-51.83,19.62-67.39,13.42,38.44-46.4,75.41-93.75,108.67-142.82h-39.99c-31.96,46.03-67.22,90.04-105.06,132.52-5.58,6.26-7.3,5.8-11.33-.94-25.08-41.91-40.67-85.77-46.57-131.57h-58.3c8.23,65.17,31.03,128.22,69.82,182.95,13.86,19.55,26.29,19.35,51.34,17.56,22.25-1.59,44.54-5.04,66.31-9.32,42.87-8.44,84.51-21.6,123.73-39.11,77.88-34.78,147.61-86,198.17-149.18.77-.96,1.51-1.93,2.27-2.89h-75.36v-.02Z"/>
    <path class="cls-5" d="M1583.87,1734.16c-25.97,12.26-53.65,21.44-82.01,28.31-24.15,5.85-62.93,18.89-87.76,13.43,7.41-19.42,23.48-38.5,42.51-55.55h-72.87c-1.99,2.45-3.95,4.92-5.87,7.41-15.94,20.7-28.86,42.86-40.59,65.63-3.57,6.92-18.74,27.72-17.26,34.96,1.95,9.53,2.2,6.58,16.7,6.29,103.83-2.11,218.71-18.01,306.33-71.14,20.14-12.21,38.69-26.59,54.13-43.15h-87.16c-8.44,5.02-17.22,9.59-26.16,13.81h.01Z"/>
    <path class="cls-5" d="M1926.08,1720.34c8.49,31.31,10.82,64.68,11.33,102.73.41,8.95-1.98,25.94-2.61,42.99-.08,2.07.57,4.77-1.81,5.88-3.31,1.55-4.77-1.6-6.53-3.14-48.31-42.11-80.23-91.25-93.46-148.47h-59.21c2.62,13.3,6.09,26.46,10.47,39.38,21.33,62.94,64.31,118.18,119.75,161.37,15.61,12.16,32.02,23.44,48.72,34.38,11.45,7.5,14.6,13.36,23.06,7.04,7.01-5.24,8.06-35.02,9.64-43.31,2.88-15.13,5.25-30.33,6.86-45.61,5.3-50.57,5.38-103.11-6.34-153.25h-59.87Z"/>
    <path class="cls-5" d="M1271.67,1720.34c-2.89,6.1-5.78,11.43-7.6,14.79-8.89,16.45-20.9,31.96-34.24,45.79-52.82,54.77-132.09,75.75-211.56,69.22-45.22-3.72-90.46-16.73-129.76-36.89-8.87-4.55-39.07-17.36-31.79-28.15,6.27-9.31,55.17-6.64,65.95-6.55,46.23.21,92.44-7.16,134.14-25.33,19.74-8.6,36.62-20.73,53.42-32.88h-85.6c-32.07,12.12-67.37,17.47-102.21,15.53,19.87-3.28,37.04-8.66,52.88-15.53h-159.84c16.86,12.95,45.28,14.65,66.56,17.39-32.95,4.89-83.93,15.24-77.16,54.68,5.74,33.47,51.22,54.47,81.85,67.19,74.89,31.12,161.84,42.45,242.66,24.08,69.79-15.87,126.21-56.03,163.78-110.05,11.07-15.92,21.48-34.23,27.7-53.29h-49.18Z"/>
    <path class="cls-5" d="M1900.54,2404.4c-68.07-1.31-138.02,8.65-198.57,37.46-57.27,27.24-98,73.79-156.23,99.56-59.88,26.5-129.26,36.18-195.4,27.45-25.52-3.37-60.09-7.37-76.93-27.06-16.77-19.6-14.54-50.16-10.73-72.93,19.03-113.85,118.54-213.06,233.38-260.49,130.89-54.06,281.52-45.67,414.12-.24,56.41,19.33,153.31,55.47,163.1,116.84,11.81,74.08-117.79,81.12-172.74,79.41ZM1318.62,2491.93c-.28,25.14,22.83,24.45,47.91,26.94,30.86,3.07,62.76,1.4,93.02-4.82,61.14-12.58,102.27-44.87,149.18-79.24,90.35-66.22,197.17-80.78,310.64-83.21,24.05-.51,67.71,1.54,87.52-13.2,17.14-12.75-10.25-28.44-23.16-37.18-48.35-32.72-108.5-51.93-166.92-65.03-108.08-24.24-226.23-18.39-324.25,31.65-86.78,44.3-167.8,132.78-173.94,224.08h0Z"/>
    <path class="cls-5" d="M1457.46,2586.35c68.21-.67,135.94-14.34,195.05-45.17,59.27-30.91,100.89-78.54,166.33-101.91,62.08-22.17,134.74-27.71,199.68-12.5,21.49,5.03,43.4,12.14,53.43,31.12,12.83,24.27,6.26,58.77-.28,83.56-29.27,110.84-128.42,203.66-244.79,247.51-133.56,50.34-290.32,35.53-421.14-14.83-51.16-19.69-150.19-61.6-140.19-123.89,10.74-66.84,136.19-67.3,191.91-63.89h0ZM1647.5,2768.61c124.81.41,246.52-51.93,317.5-144,25.73-33.38,64.19-90.9,55.11-133.61-6.62-31.13-103.9-21.35-130-16.87-52.77,9.05-99.06,33.49-138.89,64.8-42.69,33.56-88.03,60.02-142.17,76.91-53.37,16.65-109.27,22.69-165.63,22.73-29.08.02-58.76-.01-87.19,6.23-25.2,5.53-39.85,11.42-18.65,31.44,36.07,34.08,97.67,54.95,146.87,68.78,52.72,14.81,107.88,21.99,163.06,23.6h-.01Z"/>
    <path class="cls-5" d="M2097.54,1952.44c-12.94,37.01-50.57,76.82-79.63,105.01-32.22,31.25-70.59,58.13-113.25,77.31-90.72,40.77-192.41,33.61-281.24-7.52-41.92-19.41-91.88-45.98-119.86-80.75-29.44-36.57-19.2-77.06,30.79-90.81,48.05-13.22,104.99-7.34,145.45,19.48,35.84,23.77,59.79,52.74,104.19,65.92,57.22,16.99,101.51-2.28,152.16-25.3,27.87-12.67,55.59-25.74,84.16-37.14,12.05-4.81,65.78-31.88,77.23-26.2ZM1945.62,2059.61c-38.5,16.62-78.38,31.71-122.02,30.38-43.31-1.32-84.98-17.54-119.53-40.06-30.02-19.57-52.03-49.36-90.09-56.95-19.04-3.8-86.88-6.79-78.17,19.96,9.28,28.5,63.59,54.17,90.16,68.2,34.52,18.23,72.53,32.1,112.39,37.54,76.92,10.5,149.12-15.22,207.26-59.08h0Z"/>
    <path class="cls-5" d="M2310.3,1933.7c92.32.75,171.97,39.4,234.07,98.26,30.8,29.19,56.46,62.63,73.39,99.79,13.89,30.48,25.46,85.73-26.38,92.49-44.99,5.87-86.31-29.25-120.88-48.78-38.63-21.83-82.55-35.66-128.67-36.08-47.39-.42-89.93,7.39-136.51-6.03-38.48-11.09-75.97-33.06-100.51-61.9-33.56-39.44,14.21-77.07,50.93-97.93,46.11-26.19,99.78-40.13,154.55-39.81h0ZM2583.45,2174.71c-11.84-73.24-94.74-147.05-166.78-178.01-77.56-33.33-179.18-28.41-247.87,19.7-18.81,13.17-34.86,22.34-16,40.4,13.34,12.78,31.07,23.24,48.72,30.72,45.15,19.16,88.16,11.74,136.07,11.1,48.78-.65,95.4,10.8,138.24,31.27,20.23,9.67,38.05,21.93,57.11,33.14,6.88,4.05,53.24,30.58,50.51,11.66v.02Z"/>
    <path class="cls-5" d="M2327.78,2377c-92.69-1.01-176.67-56.85-232.57-118.36-27.66-30.43-124.69-174.06-17.06-172.3,47.55.78,84.94,36.64,123.8,55.98,42.91,21.36,90.8,32.24,139.93,27.8,44.8-4.05,87.94-2.85,129.85,13.39,33.36,12.93,88.97,42.75,95.32,78.14,7.58,42.25-61.26,77.24-96.47,91.81-44.73,18.51-93.91,23.58-142.81,23.56v-.02ZM2348.48,2335.14c45.97,1.16,93.49-10.75,131.55-33.86,14.76-8.96,42.44-23.32,34.05-40.17-6.42-12.89-32.05-26.32-45.61-33.26-39.8-20.37-78.47-18.69-122.38-16.07-46.62,2.78-93.43-3.24-136.52-19.51-22.94-8.66-43.83-20.29-64.43-32.63-13.2-7.9-44-33.31-61.75-30.75-26.72,3.86,29.7,82.05,39.03,93.16,54.24,64.63,132.62,113.18,226.06,113.08h0Z"/>
    <path class="cls-5" d="M1411.75,2075.65c-.01,76.98-22.25,140.03-64.04,197.8-6.64,9.18-14.72,17.56-22.27,26.21-2.08,2.38-4.11,4.6-8.48,2.15-29.15-16.36-56.85-33.97-76.91-59.69-22.49-28.83-34.41-60.75-37.11-95.44-4.54-58.37,10.93-113.59,34.28-167.53,18.88-43.62,43.24-84.72,71.68-123.99,3.86-5.33,6.25-6.39,10.74-.62,40.27,51.79,73.64,106.32,86.15,169.19,3.94,19.82,6.45,39.78,5.97,51.91h-.01ZM1316.55,1950.61c-17.34,16.53-25.3,47.64-33.17,68.69-9.38,25.07-17.23,50.72-20.6,77.01-3.17,24.75-2.75,50.58,4.46,74.8,3.74,12.58,18.21,52,35.54,55.93,28.4,6.44,49.23-108.71,50.34-129.07,2.77-50.89-10.39-102.09-36.57-147.36Z"/>
    <path class="cls-5" d="M587.87,2310.1c.65,8.85,3.01,57.37-6.1,59.89-12.11,3.35-52.67-24.12-63.23-29.96-39.96-22.09-76.63-48.79-106.47-81.22-61.56-66.92-93.37-154.16-86.18-240.49,1.23-14.8-1.43-37.68,15.92-42.52,16.36-4.56,45.78,3.22,61.73,7.11,43.29,10.54,80.28,34.61,107.28,66.11,61.72,72.02,77.41,173.15,77.05,261.1v-.02ZM528.36,2269.54c-1.53-12.84-2.7-26.2-4.77-39.46-7.87-50.43-21.35-99.3-54.12-142.2-18.71-24.49-42.85-43.35-75.02-53.26-7.86-2.42-11.14-1.74-11.01,6.61.84,56.04,16.45,108.28,50.05,155.99,21.74,30.87,50.04,56.36,82.39,78.48,3.17,2.17,6.39,6.65,10.16,5.11,4.65-1.9,1.21-7.09,2.33-11.28h0Z"/>
    <path class="cls-5" d="M2723.07,1720.34h-61.66c.03.08.07.16.1.23,12.73,27.97,20.93,68.25,21.09,102.71-.19,58.52-19.19,111.97-55.4,160.74-6.63,8.93-7.68,9-14.97.32-23.97-28.56-30.97-61.27-27.96-95.88,5.35-61.5,34.07-115.73,68.21-168.12h-67.54c-18.87,31.73-34.33,65.01-45.89,100.06-12.77,38.72-18.17,78.1-10.77,118.25,9.92,53.83,44.15,93.42,93.26,124.28,4.68,2.94,6.74,1.91,10.14-1.08,25.5-22.47,46.13-47.97,62.74-76.25,29.9-50.89,46.62-104.59,45.93-167.11.63-33.5-5.87-66.18-17.26-98.15h-.02Z"/>
    <path class="cls-5" d="M675.9,1720.34c-14.35,7.77-30.41,13.04-47.96,16.37-31.38,5.95-63.11,8.16-94.93,10.46-38,2.74-74.09,12.5-109.5,24.52-3.04,1.03-5.76,3.5-10.11,2.07,1.47-1.9,2.56-3.81,4.15-5.3,18.59-17.45,38.06-33.76,59-48.12h-71.52s-.01,0-.02.01c-30.29,25.73-57.48,54.3-81.26,84.93-22.8,29.39-49.35,63.15-63.87,96.48,21.92-2.88,48.65-26.97,67.07-37.5,20.32-11.62,40.96-22.91,62.31-32.99,42.94-20.26,89.13-35.47,137.37-41.86,77.72-10.29,167.46-7.16,219.54-69.07h-70.27,0Z"/>
    <path class="cls-5" d="M1143.54,2029.86c-89.1,6.52-94.03-118.63-5.12-122.71,89.06-4.09,95.25,120.8,5.12,122.71ZM1140.85,1939.15c-40.71-.29-45.11,54.64-5.13,59.09,46.05,5.13,52.94-58.75,5.13-59.09Z"/>
    <path class="cls-5" d="M1107.68,2736.38c-.34-79.27,138.17-78.22,138.28.2.11,79.14-137.94,79.52-138.28-.2ZM1176.45,2766.81c48.1.43,40.91-67.3-5.87-59.81-39.5,6.32-34.22,59.45,5.87,59.81Z"/>
    <path class="cls-5" d="M1169.64,2605.34c.38-50.3,86.38-52.27,90.13-2.32,3.99,53.13-90.52,55.57-90.13,2.32ZM1214.54,2614.09c12.36-1.51,12.96-17.55-.08-17.39-13.24.16-11.25,15.13.08,17.39Z"/>
    <path class="cls-5" d="M1489.51,2186.57c-59.79-.23-57.1-82.96,2.55-79.87,56.43,2.93,54.04,80.08-2.55,79.87ZM1499.61,2147.24c-2.07-10.88-20.16-12.99-20.01-.65.15,11.67,16.62,10.17,20.01.65Z"/>
    <path class="cls-5" d="M1825.18,2018.49c-58.36.21-59.96-78.66-1.73-79.33,58.37-.67,59.55,79.11,1.73,79.33ZM1815.03,1979.2c.25,10.97,19.18,10.34,18.9-.42-.28-10.9-18.7-10.81-18.9.42Z"/>
    <path class="cls-5" d="M1488.36,1896.4c-3.96,49.8-85.98,51.91-89.63,1.41-3.85-53.37,93.82-54.09,89.63-1.41ZM1452.74,1896c-.42-11.83-18.9-11.19-18.87-.06.03,11.29,17.92,10.99,18.87.06Z"/>
    <path class="cls-5" d="M2652.72,1719.97c-.08.12-.16.25-.24.37h8.93"/>
  </g>
  <path class="cls-5" d="M453.85,1228.2c47.58-87.89,92.29-173.88,120.62-268.49,28.24-94.3,32.6-192.23,61.86-286.19,56.27-180.7,193.62-317.11,383.49-396.8,50.39-21.15,102.82-38.52,156.3-52.46,25.92-6.76,52.11-12.71,78.41-18.19,22.35-4.65,52.2-18.66,65.6,1.73,25.12,38.19,34.11,91.46,42.04,134.43,9.19,49.77,11.87,100.24,9.06,150.6-5.44,97.63-32.45,201.18-87.38,286.62-49.41,76.85-122.15,139.32-205.02,187.77-95.66,55.93-204.47,93.51-316.01,115.5-58.9,11.61-114.32,21.23-166.59,49.57-50.8,27.53-94.1,64.65-140.92,96.98-.49-.36-.98-.71-1.47-1.07h0ZM1313.85,455.65c.5-15.28-.85-30.47-1.87-45.67-2.85-42.4-11.01-84.02-23.18-125.05-.73-2.45-.54-6.27-3.7-6.93-3.33-.7-4.79,2.88-6.71,4.88-44.92,46.88-88.74,94.56-131.1,143.29-3.59,4.13-5.05,8.26-5,13.4.18,20.72,1.92,41.34,4.08,61.97,6.35,60.64,20.25,119.77,44.7,176.75,9.9,23.08,22.56,45.01,37.26,66.04,4.8,6.86,6.85,5.31,10.57-.42,7.05-10.85,12.96-22.18,18.33-33.69,37.98-81.5,55.36-166.65,56.62-254.58h0ZM1107.06,475.56c-1.3.77-2.33,1.1-2.88,1.75-31.32,37.09-60.04,75.73-87,115.42-4.69,6.9-6.74,14.16-6.73,22.46.02,65.57,3.56,130.89,15.23,195.73,5.97,33.16,14.29,65.79,27.32,97.39,2.29,5.56,4.11,9.16,12.06,4.12,55.21-35.04,104.16-75.6,143.53-124.96,4.14-5.19,4.12-8.7.02-13.66-21.68-26.23-37.93-55.17-51.01-85.37-25.12-58.03-39.25-118.37-46.37-180.14-1.24-10.74-.06-21.84-4.18-32.74h.01ZM974.11,664.63c-84.67,137.21-180.61,267.22-302.42,381.29,14.95-3.35,29.5-5.4,43.98-7.55,108.62-16.15,209.69-50.28,304.35-99.89,5.36-2.81,6.4-5.36,3.94-10.86-24.84-55.65-36.01-113.97-42.33-173.23-3.17-29.69-4.55-59.47-7.52-89.76h0ZM974.62,553.92c-17.2,5.13-31.37,9.41-45.58,13.59-62.83,18.5-126.75,32.13-193.36,33.38-6.2.12-9.68,2.03-12.46,7.37-6.49,12.47-11.9,25.31-16.85,38.24-18.82,49.23-30.1,100.02-38.26,151.39-3.28,20.66-3,20.56,19.88,13.48,56.96-17.62,108.52-44.13,157.31-75.16,11.08-7.04,23.62-12.89,30.67-23.94,16.07-25.17,32.04-50.38,47.8-75.7,16.56-26.6,32.83-53.35,50.84-82.66h.01ZM744.35,568.49c11.87-.57,22.45-.56,32.88-1.66,78.76-8.34,153.19-30.1,225.69-57.76,4.65-1.78,7.84-4.51,10.69-8.13,16.13-20.45,32.3-40.88,48.77-61.12,11.74-14.43,23.97-28.54,37.15-44.18-4.49.53-6.83.67-9.1,1.1-66.99,12.72-134.51,20.93-203.23,18.73-5.81-.19-9.58,2.22-13.55,5.32-33.14,25.87-62.78,54.56-88.15,86.59-15.13,19.1-29.6,38.62-41.15,61.1h0ZM820.92,791.47c-.67-.58-1.34-1.16-2.01-1.74-27.88,13.64-54.84,28.11-84.21,39.24-18.77,7.12-64.73,12.03-75.03,26.4-6.15,8.57-5.78,33.11-7.97,43.23-2.95,13.63-6.36,27.18-10.12,40.66-7.15,25.68-22.17,54.02-24.01,80.43,77.51-70.72,144.45-146.66,203.35-228.21h0ZM1212.29,271.52c-.53-.8-1.07-1.6-1.6-2.4-99.93,25.85-195.87,59.43-281.05,113.98,1.54,1.15,2.56,1.33,3.57,1.28,66.42-2.93,131.43-13.4,195.58-28.59,6.01-1.42,10.26-4.44,14.02-8.63,13.06-14.52,26.27-28.95,39.5-43.35,9.93-10.81,19.98-21.53,29.98-32.29Z"/>
  <path class="cls-5" d="M1743.04,1089.4s.07-.06.11-.09c0,0,.01-.02.02-.03l-.13.12Z"/>
  <path class="cls-5" d="M1713.46,1280.04c14.23-15.26,25.8-32.38,33.49-51.38,8.26-20.38,6.93-41.28,12.97-61.72,6.22-21.02,28.03-42.84,43.85-59.12.11,16.94-11.36,36.16-14.67,53.18-3.61,18.49-5.23,37.27-5.2,56.03.04,21.07,2.05,42.21,6.15,63.01"/>
  <path class="cls-5" d="M2218.01,668.73c.74,50.31-1.63,146.12-69.27,165.33-67.34,19.12-111.85-65.55-133.85-107.47-28.94-55.16-60.68-105.14-113.67-145.18-49.56-37.46-112.42-52.19-164.02-86.36-45.61-30.2-80.38-71.1-103.06-117.25-13.33-27.11-27.98-62.18-24.36-92.32,3.35-27.92,33.93-44.08,61.32-52.5,124.54-38.28,271.1,2.61,369.8,73.18,119.07,85.13,180.34,228.62,177.11,362.57ZM2160,668.51c-2.38-112.32-42.4-230.53-137.78-308.32-77.64-63.32-184.16-97.82-289.8-86.04-21.95,2.45-63.4,5.39-62.39,29.48.99,23.48,14.83,50.37,26.94,70.76,22.53,37.95,56.35,69.46,97.48,91.93,47.16,25.77,98.03,40.08,141.23,72.28,40.72,30.35,74.79,67.18,101.07,108.17,25.26,39.41,38.88,100.35,80.29,129.46,39.44,27.73,42.29-88.97,42.97-107.72h0Z"/>
  <path class="cls-5" d="M1883.02,919.31c-137.17-1.16-266.36-56-348.86-153.97-84.83-100.73-122.44-246.43-97.58-370.26,9.35-46.58,44.77-114.44,110.9-85.86,61.63,26.64,82.53,103.26,112.78,152.43,27.9,45.35,65.74,85.81,114.08,115.06,54.56,33.02,117.39,48.59,166.23,89.85,51.13,43.21,86.85,102.62,96.47,164.85,5.2,33.63-7.96,53.02-42.15,67.75-32.55,14.02-75.72,21.61-111.86,20.14h-.01ZM1489.09,467.01c.5,109.57,38.94,226.37,128.86,304.73,76.91,67.02,189.2,106.63,297.52,93.83,19.13-2.26,60.89-5.63,64.29-25.61,3.08-18.08-13.64-48.62-21.98-64.66-20.6-39.66-54.6-74.69-96.03-98.36-46.31-26.46-98.57-40.66-142.33-71.42-40.44-28.43-73.69-63.99-100.57-102.92-28.86-41.81-42.73-91.92-78.21-130.07-6.63-7.13-16.42-20.08-27.54-14.52-7.12,3.56-11.36,20.4-13.5,26.66-9,26.36-10.9,54.98-10.52,82.35h0Z"/>
  <path class="cls-5" d="M1743.16,1089.28c-68.3,14.94-136.28,13.06-203.62-4.24-70.82-18.19-129.59-53.35-179.07-101.49-29.18-28.38-50.29-61.5-72.61-93.97-4.43-6.45,1.68-5.87,5.08-6.24,13.97-1.53,27.97-3.05,42.01-3.86,85.74-4.94,170.44-.63,252,25.72,52.93,17.1,97.74,44.19,127.28,88.18,19.85,29.56,27.48,62.06,28.8,96.02l.13-.12ZM1648.56,1047.22c6.52,0,13.06-.25,19.57.07,7.06.34,9.23-1.65,6.6-7.84-6.25-14.69-14.96-27.95-26.92-39.61-26.53-25.87-60.65-40.65-97.24-50.95-49.38-13.9-100.42-19.09-152.15-19-2.87,0-6.89-1.55-8.4,1.39-1.47,2.86,2.24,4.8,4.1,6.8,66.01,70.84,151.16,106.66,254.45,109.15h0Z"/>
  <path class="cls-5" d="M2739.35,1280.04c-12.61-35.38-31.19-69.87-52.74-103.58-2.79-4.36-4.63-4.23-7.81-.2-5.11,6.48-10.88,12.55-16.27,18.85-23.15,27.07-43.71,55.32-61.31,84.93"/>
  <path class="cls-5" d="M605.18,598.79c-43.9,81.17-89.64,159.51-83.44,252.24,2.96,44.23,2.55,91.65-27.78,129.41-20.21,25.17-55.39,49.33-89.51,28-34.53-21.58-41.44-75.97-40.46-110.53,1.22-43.03,17.6-85.28,41.12-122.61,48.24-76.57,123.46-123.82,198.16-177.99.64.49,1.28.98,1.92,1.47h-.01ZM484.35,748.86c-11.02-.05-30.59,34.97-35.75,42.76-10.71,16.16-19.75,33.22-26.18,51.09-6.96,19.38-11.05,39.7-11.17,60.07-.1,17.38,1.32,52.68,15.92,66.12,26.55,24.44,47.09-61.55,47.94-75.81,2.93-49.29-3.99-95.36,9.22-144.23h.02Z"/>
  <path class="cls-5" d="M263.19,1142.9c.06-51.99,46.54-93.23,105.33-93.46,56.71-.22,105.45,42.92,105.34,93.21-.11,52.13-47.91,94.67-106.1,94.43-58.32-.24-104.64-41.96-104.58-94.18h.01ZM414.75,1143.82c.39-54.01-93.39-54.37-93.41-.56-.02,53.37,93.02,53.88,93.41.56Z"/>
  <path class="cls-5" d="M1407.63,866.12c-54.84-.49-99.51-40.95-99.27-89.59.24-49.19,49.98-89.5,104.91-87.38,125.47,4.85,120.27,178.08-5.63,176.96h-.01ZM1408.19,824.22c65.51-.16,69.24-88.55,4.37-93.11-70.3-4.93-75.69,93.28-4.37,93.11Z"/>
  <path class="cls-5" d="M1897.29,1087.82c.04-78.19,134.46-78.7,137.86-1.13,3.5,79.77-137.9,82.25-137.86,1.13ZM1932.44,1088.19c-.09,37.32,62.82,40.16,66.58,3.06,4.12-40.67-66.49-43.45-66.58-3.06Z"/>
  <path class="cls-5" d="M1479.13,1134.75c.16,50.3-85.15,52.76-89.87,3.05-5-52.66,89.7-56.31,89.87-3.05ZM1433.48,1126.14c-11.28,1.67-11.33,16.87.3,17.59,13.31.82,12.45-16.49-.3-17.59Z"/>
  <path class="cls-5" d="M1572.45,258.93c-56.4.27-60.14-74.62-4.11-79.03,59.64-4.69,64.35,78.74,4.11,79.03ZM1572.22,210.69c-13.11.59-12.92,17.24-.14,17,12.4-.24,12.41-16.05.14-17Z"/>
  <path class="cls-5" d="M2620.84,799.93c-69.47-160.92-217.34-280.92-386.77-358.65,34.7,98.56,66.8,195.89,46.59,300.33-8.21,42.45-25.4,83.63-56.07,117.46-31.7,34.97-67.56,64.33-93.88,103.34-62.16,92.16-89.63,207.9-75.77,317.65h58.3c-2.35-18.28-3.17-36.87-2.42-55.77,2.52-63.35,13.01-125.41,41.04-184.34,22.28-46.84,52.76-88.85,93.87-124.51,53.84-46.68,81.37-104.74,93.24-169.5,8.95-48.8,8.16-97.71,1.05-146.64-.11-.76.29-1.58.68-3.48,10.31,12.23,17.03,25.2,24.07,37.87,35.01,63.03,54.9,129.63,59.56,199.88,4.77,71.92-5.69,142.17-27.99,211.21-23.69,73.33-58.76,142.29-101.85,208.17-5.97,9.12-12.08,18.15-18.3,27.11h39.99c54.1-79.79,98.42-164.11,123.41-256.25,20.26-74.72,27.16-152.32,16.08-228.7-10.89-75.07-41.4-139.37-77.39-207,163.64,120.72,255.37,310.65,215.43,498.68-15.12,71.19-49.99,138.19-102.51,193.27h75.36c108.66-138.13,121.24-324.97,54.26-480.12h.02Z"/>
  <path class="cls-5" d="M2130.86,889.46c-2.34-4.1-37.35-19.42-42.92-19.21-10.64.41-19.1,15.45-26.21,21.53-50.12,42.88-112.32,53.42-174.36,75.12-32.6,11.41-57.39,31.23-80.76,53.91-21.76,21.11-39.25,49.85-63.47,68.51-7.14,13.81-21.67,38.38-37.25,45.43-18.71,8.47-51.66,4.79-72.72,8.83-49.94,9.57-98.21,28.06-140.08,54.05-36.16,22.45-67.37,50.67-93.08,82.42h72.87c20.69-18.54,44.88-34.66,65.26-46.18,19.59-11.07,148.83-66.35,158.68-39.84,5.55,14.95-22.24,46.59-32.29,56.77-11.15,11.29-24.2,20.89-38.23,29.24h222.97c-2.44-10.57-4.25-21.43-5.4-32.56-2.5-24.1-1.85-48,1.81-71.99,1.4-9.16,5.56-7.96,12.13-4.78,35.45,17.15,58.37,43.74,72.93,76.48,4.79,10.77,8.6,21.68,11.62,32.86h59.87c-3.58-15.31-8.24-30.4-14.21-45.14-21.49-53.06-63-98.18-123.7-118.29-10.35-3.43-45.72-5.71-51.24-12.11-7.13-8.27,5.8-16.5,13.68-24.96,19.67-21.12,41.63-44.85,68.69-58.86,27.88-14.43,64.09-18,94.1-28.89,31.97-11.6,62.48-26.55,89.76-45.4,13.48-9.31,60.53-41.2,51.55-56.93h0Z"/>
  <g>
    <path class="cls-5" d="M1342.05,1232.62c-5.34-34.27-45.52-38.72-78.16-41.58,11.77-9.7,38.47-6.94,53.4-15.66,14.91-8.71,23.98-22.62,21.71-38.78-4.69-33.43-49.33-54.96-79.74-67.93-73.87-31.49-165.19-44.83-245.02-25-72.22,17.94-140.19,63.94-173.54,124.17-14.35,25.92-17.53,82.6-8.82,111.74l294.88.27c19.08-13.8,38.06-27.59,61.02-36.25,18.98-7.15,95.34-25.12,107.84-1.87,4.63,8.61-1.48,25.21-7.65,38.27l49.14.04c5.09-15.6,7.39-31.7,4.94-47.42h0ZM1143.96,1216.79c-22.51,11.61-82.11,49.27-102.9,62.8h-49.33c29.43-12.77,54.08-30.24,82.97-49.54,20.47-13.67,43.52-23.93,68.12-30.32,15.41-4,64.91-17.15,77.35-7.39-26.67,5.8-52.27,12.1-76.21,24.44h0ZM1214.93,1149.45c-43.61,0-87.06,7.46-126.41,24.44-40.13,17.31-67.79,49.11-107.43,66.36-18.34,7.98-38.27,12.69-58.63,14.03-10.88.72-47.34,3.86-55.99-5.09-16.76-17.34,21.41-72.44,33.58-87.53,51.84-64.29,141.53-92.91,228.3-83.35,45.76,5.04,93.17,16.99,132.72,38.46,7.34,3.98,18.48,8.78,23.13,15.2,7.01,9.69,6.56,4.64-.29,11.19-10.98,10.49-54.28,6.29-68.97,6.29h-.01Z"/>
    <path class="cls-5" d="M1126.5,1280.04h161.45s.01-.03.02-.04l-161.21-.15c-.09.06-.18.13-.26.19h0Z"/>
  </g>
  <g>
    <path class="cls-5" d="M759.9,1203.85c-29.48-21.95-81.98-23.54-118.44-21.25-85.25,5.35-159.73,46.13-220.14,97.44l71.66-.1c30.71-21.06,64.56-37.93,103.4-48.08,40.11-10.48,80.61-10.79,121.06-1.2,16.61,3.94,18.97,11.02,8.29,22.97-9.63,10.76-20.65,19.32-32.91,26.04l69.79-.09c17.89-22.82,22.99-56.59-2.72-75.73h.01Z"/>
    <path class="cls-5" d="M492.83,1280.04h199.35c.22-.12.42-.24.64-.36l-199.84.27s-.1.06-.14.1h-.01Z"/>
  </g>
  <rect class="cls-5" x="99.99" y="1708.16" width="2796.23" height="12.18"/>
  <rect class="cls-5" x="95.79" y="1279.64" width="2796.23" height="12.18"/>
  <g class="cls-4">
    <text class="cls-3" transform="translate(393.68 1656.45) scale(1.07 1)"><tspan x="0" y="0">CAFÉ CRÈME</tspan></text>
  </g>
  <circle class="cls-1" cx="1500" cy="1500" r="1412.37"/>
  <g>
    <path class="cls-5" d="M251.46,1441.29c-1.05,6.59-1.6,12.09-2.85,17.44-4.36,18.75.45,35.15,12.43,49.71,12.38,15.05,16.6,31.52,10.07,50.38-1.57,4.53-4.02,6.38-8.7,6.73-15.04,1.13-25.6-6.43-32.72-18.28-15.2-25.29-18.16-52.48-8.48-80.42,4.63-13.35,13.57-23.03,30.25-25.56h0Z"/>
    <path class="cls-5" d="M279.78,1564.96c1.19-5.95,1.98-10.41,2.98-14.82,3.13-13.78,1.05-26.78-8.86-36.88-18.53-18.9-19.96-40.89-14.57-64.97,1.29-5.75,3.85-6.82,8.86-6.12,10.98,1.52,19.6,7.21,25.82,15.9,18.97,26.52,21.7,55.09,8.76,84.89-4.31,9.92-11.54,17.6-23,22h0Z"/>
    <path class="cls-5" d="M2762.88,1442.89c-3.02,3.52-5.6,7.23-8.86,10.19-14.8,13.46-20.59,30.12-19.04,49.87.55,7.02.55,14.26-.53,21.18-1.95,12.45-9.59,21.64-19.66,28.66-1.93,1.35-5.86,1.37-8.17.38-11.61-5.03-17.62-14.83-18.23-26.86-1.77-34.62,12.19-62.06,40.51-81.81,10.61-7.4,23.05-7.48,33.98-1.61Z"/>
    <path class="cls-5" d="M2720.87,1558.34c4.68-4.05,7.96-6.73,11.07-9.61,11.72-10.86,16.35-24.26,13.2-39.9-5.25-25.98,7.68-44.33,25.17-60.69,1.3-1.22,5.82-.73,7.62.61,11.14,8.3,14.86,20.51,14.56,33.52-.69,29.85-13.46,53.62-38.48,70.26-9.13,6.07-19.34,8.64-33.13,5.8h-.01Z"/>
  </g>
  <path class="cls-5" d="M1472.53,180.41c-31.72-25.1-74.19-24.29-94.86,1.83s-11.7,67.63,20.02,92.74c31.72,25.1,74.19,24.29,94.86-1.83,20.67-26.11,11.7-67.63-20.02-92.74h0ZM1480.44,268.83c-8.77,9.83-20.63,12.33-32.9,10.95-28.16-3.15-49.55-17.21-63.19-42.26-4.97-9.14-6.54-19.01-2.71-31.81,3.43,4.76,5.69,8.09,8.15,11.27,9.28,11.99,21.56,17.49,36.61,15.81,25-2.78,41.26,10.97,55.26,28.87,1.04,1.33.2,5.56-1.21,7.15v.02ZM1487.24,255.1c-3.07-3.15-6.36-5.9-8.89-9.22-11.48-15.12-26.75-21.98-45.55-22.17-6.68-.07-13.52-.67-19.98-2.28-11.61-2.88-19.66-10.88-25.44-20.98-1.11-1.94-.81-5.66.33-7.75,5.72-10.55,15.49-15.41,26.92-14.99,32.87,1.23,57.64,16.72,73.94,45.14,6.11,10.65,5.14,22.41-1.33,32.25h0Z"/>
  <path class="cls-5" d="M2259.42,2442.24c-39.41-31.19-92.18-30.17-117.86,2.27-25.68,32.44-14.54,84.03,24.88,115.22,39.41,31.19,92.18,30.17,117.86-2.27s14.54-84.03-24.88-115.22ZM2269.24,2552.1c-10.9,12.22-25.63,15.31-40.88,13.61-34.98-3.92-61.57-21.39-78.51-52.5-6.18-11.35-8.13-23.61-3.37-39.52,4.26,5.91,7.07,10.05,10.13,14,11.53,14.89,26.79,21.73,45.49,19.65,31.06-3.46,51.27,13.63,68.65,35.88,1.29,1.66.25,6.91-1.51,8.89h0ZM2277.7,2535.04c-3.82-3.92-7.9-7.33-11.04-11.46-14.27-18.78-33.23-27.31-56.59-27.55-8.3-.08-16.8-.84-24.82-2.83-14.42-3.58-24.42-13.52-31.61-26.07-1.38-2.41-1-7.03.41-9.63,7.11-13.11,19.25-19.15,33.44-18.62,40.84,1.53,71.62,20.77,91.86,56.09,7.59,13.23,6.38,27.85-1.65,40.07h0Z"/>
  <path class="cls-5" d="M1739.12,1816.86c-17.72-26.74-58.42-30.97-90.9-9.45-32.49,21.52-44.46,60.65-26.74,87.39s58.42,30.97,90.9,9.45,44.46-60.65,26.74-87.39ZM1629.06,1885c-6.37-10.98-5.11-22.58-.17-33.41,11.32-24.83,30.6-40.21,57.62-45.19,9.86-1.82,19.36-.3,29.93,7.04-5.39,1.72-9.11,2.79-12.76,4.09-13.76,4.91-22.47,14.5-25.45,28.78-4.94,23.72-22.41,34.49-42.99,41.94-1.53.55-5.16-1.48-6.18-3.25ZM1732.2,1852.05c-10.97,29.73-32.57,47.77-63.48,54.17-11.58,2.4-22.06-2.01-29.13-10.88,3.81-1.87,7.31-4.06,11.11-5.37,17.28-5.98,28.14-17.9,33.94-35.06,2.06-6.09,4.67-12.18,8.07-17.61,6.12-9.76,15.85-14.74,26.83-17.01,2.11-.44,5.42.96,7,2.62,7.95,8.4,9.47,18.8,5.66,29.13h0Z"/>
  <path class="cls-5" d="M1295.41,973c-1.88-28.46-31.44-49.68-66.01-47.39-34.58,2.29-61.08,27.21-59.2,55.68,1.88,28.46,31.44,49.68,66.01,47.39,34.58-2.29,61.08-27.21,59.2-55.68h0ZM1180.37,977.06c-.08-11.29,6.02-19.68,14.6-25.87,19.69-14.18,41.37-17.55,64.42-9.48,8.41,2.94,15.08,8.31,20,18.64-4.92-1.05-8.27-1.87-11.65-2.47-12.78-2.28-23.75,1.28-32.34,11-14.28,16.14-32.51,16.75-51.69,13.42-1.43-.25-3.33-3.42-3.34-5.24h0ZM1274.54,997.11c-21.58,18.11-46.22,22.51-72.9,13.82-10-3.26-16.15-11.28-17.69-21.25,3.76.24,7.43.09,10.95.75,15.98,3,29.62-1.41,41.67-12.1,4.28-3.8,8.98-7.34,14-10.03,9.03-4.84,18.74-4.39,28.22-1.3,1.82.59,3.76,3.13,4.25,5.11,2.43,9.99-.98,18.69-8.48,24.99h-.02Z"/>
</svg>