<?xml version="1.0" encoding="UTF-8"?>
<svg id="Calque_1" data-name="Calque 1" xmlns="http://www.w3.org/2000/svg" viewBox="0 0 500 500">
  <defs>
    <style>
      .cls-1 {
        fill: #240e00;
        stroke-width: 0px;
      }
    </style>
  </defs>
  <g id="Saveurs">
    <path class="cls-1" d="M444.78,259.73c11.29-7.07,20.84-16.13,29.14-26.39,11.68-14.43,19.51-30.79,22.74-49.2v-1.93c-15.05-12.91-31.76-22.72-51.15-27.63-14.16-3.58-28.52-4.08-43.33-2.86.34-.95.51-1.53.75-2.08,13.33-31.08,13.35-62.28.83-93.59-.76-1.89-1.14-3.71-4.03-3.9-32.85-2.18-62.22,6.49-87.64,27.73-1.3,1.09-2.2,2.8-4.18,3-.29-.98-.61-1.89-.83-2.82-7.61-32.83-26.15-57.73-54.6-75.48-1.53-.96-2.61-1.77-4.63-.51-26.91,16.69-45.35,39.81-53.96,70.48-.79,2.8-1.49,5.63-2.25,8.54-.78-.39-1.1-.48-1.33-.68-25.53-22.87-55.57-32.38-89.55-30.23-1.99.13-3.47.23-4.44,2.61-8.9,21.76-11.98,44.14-7.93,67.42,1.76,10.11,5,19.74,9.05,29.32-.86.05-1.34.14-1.8.1-33.84-3.07-63.74,6.38-89.72,28.26-1.34,1.13-3.09,1.69-2.41,4.5,6.41,26.43,19.54,48.63,40.6,66.02,5.4,4.46,11.43,8.04,17.35,12.09-31.09,18.02-49.71,44.67-57.56,76.64-.51,2.07-.9,3.52,1.25,5.31,44.61,37.29,102.35,39.35,149.19,5.22,30.62-22.3,61.32-44.5,91.86-66.89,2.89-2.12,4.65-1.84,7.34.13,32.02,23.38,63.89,46.96,96.25,69.86,41.76,29.55,97.89,27.88,138.36-3.37,2.76-2.13,5.12-4.87,8.51-6.15v-1.93c-1.09-3.18-.84-6.58-1.82-9.82-8.55-28.21-25.35-50.15-49.92-66.26-4.24-2.78-4.32-2.89-.14-5.51ZM38.32,197.09c-1.57-3.1-1.22-4.53,1.89-6.12,30.96-15.81,61.73-15.65,90.8,3.53,25,16.49,48.74,34.9,73.04,52.45-.08.32-.16.63-.23.95-3.64,0-7.28,0-10.92,0-26.01-.03-52.05.8-78.02-.3-35.21-1.5-60.63-19.08-76.56-50.51ZM128.97,331.54c-28.62,18.31-59.01,17.82-89.15,2.08-2.82-1.47-3.04-2.75-1.7-5.44,15.09-30.52,39.54-48.7,73.39-50.69,30.65-1.81,61.5-.38,93.74-.38-26.13,18.8-50.4,37.88-76.28,54.44ZM184.39,196.97c-13.53-10.04-28.09-18.79-40.43-30.3-23.35-21.79-31.83-48.95-27.08-80.37.48-3.21.81-5.66,5.79-4.84,35.85,5.91,60.35,25.61,72.37,59.82,9.4,26.73,17.7,53.85,26.47,80.8.14.42.06.9.11,1.96-12.67-9.2-25.04-18.02-37.23-27.07ZM250.7,212.84c-.13.41-.41.77-1.21,2.22-9.53-31.32-21.66-60.78-28.71-91.64-7.31-32,2.65-59.8,26.2-82.72,2.3-2.24,3.58-2.01,5.72.1,26.12,25.82,34.42,56.51,23.97,91.62-8.04,26.99-17.26,53.62-25.97,80.41ZM277.58,223.75c4.98-15.33,9.8-30.21,14.65-45.08,4.37-13.39,8.22-26.99,13.3-40.12,12.9-33.33,37.63-52.03,72.85-57.26,2.96-.44,3.46.76,3.88,3.15,6.01,34.39-3.61,63.74-30.72,85.61-23.2,18.72-48.06,35.39-72.19,52.96-.34.25-.8.34-1.77.74ZM461.88,328.93c1.39,2.86-.08,3.58-2.02,4.59-32.52,16.97-64.29,15.54-94.46-5.19-23.26-15.97-45.75-33.05-68.6-49.61-.49-.36-1.16-.48-1.49-.61.55-.95.63-1.2.71-1.2,32.1.33,64.32-2.17,96.26,1.04,32.47,3.26,55.38,21.67,69.61,50.98ZM384.67,247.59c-29.02,1.12-58.11.28-87.17.31-.58,0-1.16-.09-2.75-.21,10.94-7.96,21.08-15.38,31.26-22.75,14.16-10.25,27.89-21.17,42.61-30.54,29.38-18.7,59.9-19.27,90.84-3.38,2.73,1.4,3.59,2.54,2.01,5.7-15.91,31.67-41.36,49.51-76.8,50.88Z"/>
    <path class="cls-1" d="M254.17,323.35c-1.33-2.3-2.71-4.58-4.06-6.88-.58.35-.95.44-1.08.67-17.69,30.66-36.04,60.97-52.85,92.11-17.53,32.48.25,73.41,35.48,84.54,3.14.99,6.57.98,9.47,2.78h16.39c3.02-.8,6.06-1.53,9.06-2.41,37.19-10.91,54.74-53.04,35.78-87.09-15.66-28.13-32.09-55.83-48.18-83.71ZM269.52,460.63c-11.57,9.37-27.83,9.33-39.55-.09-11.39-9.16-15.02-25.51-7.81-38.73,8.73-16,18.1-31.64,27.64-48.23,9.59,16.67,18.99,32.32,27.69,48.36,7.17,13.2,3.46,29.42-7.99,38.69Z"/>
  </g>
</svg>