<?xml version="1.0" encoding="UTF-8"?>
<svg id="Calque_1" data-name="Calque 1" xmlns="http://www.w3.org/2000/svg" viewBox="0 0 500 500">
  <defs>
    <style>
      .cls-1 {
        fill: #240e00;
        stroke-width: 0px;
      }
    </style>
  </defs>
  <path class="cls-1" d="M419.18,242.07c13.08,2.13,25.83,3.94,38.45,6.41,4.82.94,9.53,3.03,13.97,5.24,15.38,7.64,23.34,20.1,24.27,37.39,1.4,26.01-8.71,47.55-25.91,65.93-26.23,28.05-58.23,45.85-96.47,51.85-1.81.28-4.12,1.44-5,2.91-7.59,12.65-18.19,16.17-33.06,15.99-73.44-.86-146.9-.43-220.36-.3-4,0-6.72-1.24-9.4-4.06-20.68-21.72-33.46-47.84-42.38-76.08-10.75-34.06-15.63-69.15-17.79-104.68-.21-3.44-.56-6.88-.73-10.32-.72-14.07,8.02-23.29,22.16-23.3,92.77-.02,185.53,0,278.3,0,17.42,0,34.83-.04,52.25.01,13.38.04,21.89,8.8,21.71,22.15-.05,3.78,0,7.56,0,10.86ZM394.45,366.53c2.04-.23,3.89-.36,5.72-.66,17.71-2.97,32.88-10.96,45.76-23.37,10.64-10.25,18.89-21.89,21.42-36.88,2.56-15.19-4.35-26.58-18.45-30-10.79-2.61-21.25-.8-31.37,3.18-1.29.51-2.41,2.65-2.73,4.21-3.53,17.2-6.47,34.53-10.45,51.62-2.48,10.66-6.46,20.97-9.91,31.9Z"/>
  <path class="cls-1" d="M231.87,441.89c72.91,0,145.83,0,218.74,0,1.38,0,2.86-.32,4.11.08,1.99.62,4.87,1.29,5.48,2.74.74,1.75.31,5.15-1,6.42-7.59,7.41-14.82,15.58-23.6,21.31-23.95,15.63-51.01,22.9-79.34,23.08-82.91.54-165.82.64-248.73-.04-30.65-.25-59.6-8.72-84.9-26.86-6.22-4.46-11.51-10.32-16.72-16-1.68-1.83-3-5.76-2.13-7.63.82-1.78,4.73-2.96,7.29-2.97,55.33-.16,110.66-.12,165.99-.12,18.27,0,36.54,0,54.81,0Z"/>
  <path class="cls-1" d="M170.81,145.41c-.14-8.97-3.93-16.14-9.31-22.74-5.67-6.95-11.29-13.97-13.4-23-2.68-11.45-.83-22.61,2.56-33.59,1.23-3.99,4.38-5.69,8.53-4.85,3.83.78,6.02,4.52,5.22,8.79-.54,2.87-1.34,5.69-1.97,8.55-2.73,12.32.23,23.1,8.39,32.7,6.61,7.78,12.53,15.96,13.77,26.65,1.19,10.22-.93,19.89-4.11,29.4-1.39,4.14-5.32,5.87-9.16,4.4-4-1.53-5.31-4.71-4.45-8.76,1.24-5.87,2.62-11.71,3.93-17.57Z"/>
  <path class="cls-1" d="M251.95,143.7c-1.68,7.71-3.12,15.48-5.15,23.09-1.21,4.55-5.26,6.46-9.29,4.97-4.33-1.6-5.35-5.04-4.41-9.23.68-3.02,1.66-5.97,2.28-9,2.25-10.88.58-20.89-6.77-29.59-1.22-1.45-2.29-3.03-3.55-4.44-14.19-15.8-14.24-33.9-8.52-52.88,1.34-4.46,5.33-6.72,9.18-5.26,4.13,1.56,5.71,4.74,4.73,9.1-.3,1.34-.67,2.67-1.04,4-3.8,13.93-1.74,26.48,8.11,37.58,7.92,8.93,13.94,18.89,14.42,31.66Z"/>
  <path class="cls-1" d="M317.81,145.45c-1.51,6.87-2.81,13.79-4.61,20.58-1.33,5.01-5.02,7.04-9.3,5.84-4.12-1.16-5.78-4.88-4.49-10.07.75-3,1.65-5.98,2.23-9.01,1.93-10.12.54-19.54-6.13-27.78-1.08-1.34-2.03-2.8-3.19-4.06-14.6-15.77-15.83-33.99-9.85-53.54,1.51-4.94,4.99-7.28,9.11-6.16,4.11,1.11,5.88,4.89,4.75,9.92-.83,3.69-1.78,7.38-2.26,11.12-1.3,10.03,1.03,19.12,7.5,27.07,3.04,3.74,6,7.56,8.75,11.52,5.09,7.32,7.2,15.54,7.5,24.58Z"/>
</svg>