<?xml version="1.0" encoding="UTF-8"?>
<svg id="Calque_1" data-name="Calque 1" xmlns="http://www.w3.org/2000/svg" viewBox="0 0 500 500">
  <defs>
    <style>
      .cls-1 {
        fill: #240e00;
        stroke-width: 0px;
      }
    </style>
  </defs>
  <path class="cls-1" d="M250.64,495.65H24.67c-18.08,0-19.23-1.04-19.08-18.88.54-63.19,25.39-114.73,75.12-153.7,32.46-25.43,69.83-38.6,111.08-39.26,38.57-.62,77.16-.54,115.74-.08,97.37,1.15,178.56,76.53,187.11,173.43.75,8.52.86,17.11.97,25.67.12,9.55-3.26,12.81-12.88,12.81-64.1.02-128.19,0-192.29,0-13.27,0-26.54,0-39.81,0Z"/>
  <path class="cls-1" d="M251.08,239.73c-64.06.2-116.87-52.51-116.99-116.77-.12-65.2,52.41-118.48,116.76-118.43,65.47.05,118.12,52.33,118.39,117.56.26,64.89-52.51,117.43-118.16,117.64Z"/>
</svg>