<?xml version="1.0" encoding="UTF-8"?>
<svg id="Calque_1" data-name="Calque 1" xmlns="http://www.w3.org/2000/svg" viewBox="0 0 500 500">
  <defs>
    <style>
      .cls-1 {
        fill: #240e00;
        stroke-width: 0px;
      }
    </style>
  </defs>
  <path class="cls-1" d="M445.46,32.5c7.9,2.51,14.76,6.4,18.45,14.29,4.4,9.41,3.51,18.38-2.68,26.73-1.42,1.92-3.15,3.62-4.84,5.32-55.64,55.67-111.29,111.32-166.93,166.98-1.18,1.18-2.31,2.4-4.32,4.51,1.59,1.12,3.16,1.91,4.33,3.09,55.98,55.93,111.93,111.88,167.87,167.85,9.96,9.96,12.01,21.74,5.78,32.67-7.53,13.19-25.46,16.74-37.43,7.35-1.88-1.48-3.62-3.15-5.32-4.85-55.67-55.64-111.32-111.29-166.96-166.95-1.18-1.18-2.14-2.58-3.36-4.07-1.82,1.75-3.05,2.87-4.22,4.05-55.96,55.94-111.91,111.9-167.88,167.84-10.1,10.09-22.08,12.1-33.03,5.64-6.74-3.98-10.12-10.34-12.41-17.47v-8.48c1.98-8.02,7.26-13.76,12.93-19.42,54.81-54.68,109.51-109.46,164.29-164.17,1.18-1.18,2.76-1.94,4.15-2.9,0-.61,0-1.22,0-1.82-1.39-.96-2.97-1.73-4.15-2.9-54.77-54.72-109.48-109.49-164.28-164.17-5.67-5.65-10.97-11.37-12.93-19.41v-8.48c.81-2.08,1.53-4.19,2.43-6.22,3.65-8.24,10.59-12.4,18.77-14.98h8.48c8.02,1.98,13.75,7.26,19.41,12.92,54.68,54.81,109.46,109.52,164.18,164.29,1.18,1.18,1.94,2.76,2.9,4.15.61,0,1.22,0,1.82,0,.96-1.39,1.73-2.97,2.9-4.15,54.72-54.77,109.5-109.48,164.18-164.29,5.65-5.67,11.38-10.94,19.4-12.92h8.48Z"/>
</svg>